<svg width="12.621534mm" height="11.959238mm" viewBox="0 0 12.621534 11.959238" version="1.1" id="svg1" xmlns="http://www.w3.org/2000/svg" xmlns:svg="http://www.w3.org/2000/svg">
  <defs id="defs1"></defs>
  <g id="layer1" transform="translate(-84.137498,-119.85625)">
    <path id="XMLID_176_" class="st3" d="m 86.254167,127.15874 v -5.34458 c 0,-0.26458 0.211667,-0.47625 0.47625,-0.47625 h 1.719792 c 0.264583,0 0.47625,0.21167 0.47625,0.47625 v 3.78354" style="fill:none;stroke:#2abf88;stroke-width:0.529167;stroke-linecap:round;stroke-miterlimit:10;stroke-opacity:1"></path>
    <path id="XMLID_175_" class="st3" d="m 89.69375,125.30666 v -4.70958 c 0,-0.26459 0.211667,-0.47625 0.47625,-0.47625 h 0.502709 c 0.291041,0 0.502708,0.23812 0.502708,0.50271 v 4.65666" style="fill:none;stroke:#eca904;stroke-width:0.529167;stroke-linecap:round;stroke-miterlimit:10;stroke-opacity:1"></path>
    <path id="XMLID_174_" class="st3" d="m 91.969167,125.5977 v -4.10104 c 0,-0.26458 0.211667,-0.47625 0.47625,-0.47625 h 1.349375 c 0.264583,0 0.47625,0.21167 0.47625,0.47625 v 5.34458" style="fill:none;stroke:#ba2191;stroke-width:0.529167;stroke-linecap:round;stroke-miterlimit:10;stroke-opacity:1"></path>
    <line id="XMLID_173_" class="st3" x1="86.915627" y1="122.39625" x2="88.264999" y2="122.39625" style="fill:none;stroke:#2abf88;stroke-width:0.529167;stroke-linecap:round;stroke-miterlimit:10;stroke-opacity:1"></line>
    <line id="XMLID_172_" class="st3" x1="86.915627" y1="123.48103" x2="88.264999" y2="123.48103" style="fill:none;stroke:#2abf88;stroke-width:0.529167;stroke-linecap:round;stroke-miterlimit:10;stroke-opacity:1"></line>
    <line id="XMLID_171_" class="st3" x1="86.915627" y1="124.56583" x2="88.264999" y2="124.56583" style="fill:none;stroke:#2abf88;stroke-width:0.529167;stroke-linecap:round;stroke-miterlimit:10;stroke-opacity:1"></line>
    <line id="XMLID_170_" class="st3" x1="86.915627" y1="125.65062" x2="88.264999" y2="125.65062" style="fill:none;stroke:#2abf88;stroke-width:0.529167;stroke-linecap:round;stroke-miterlimit:10;stroke-opacity:1"></line>
    <line id="XMLID_169_" class="st3" x1="86.915627" y1="126.73541" x2="87.656456" y2="126.73541" style="fill:none;stroke:#2abf88;stroke-width:0.529167;stroke-linecap:round;stroke-miterlimit:10;stroke-opacity:1"></line>
    <circle id="XMLID_168_" class="st3" cx="93.120102" cy="122.39625" r="0.48062137" style="fill:none;stroke:#ba2191;stroke-width:0.529167;stroke-linecap:round;stroke-miterlimit:10;stroke-opacity:1"></circle>
    <path id="XMLID_71_" class="st3" d="m 91.810417,127.87316 c -0.343958,-0.55562 -0.978958,-0.89958 -1.666875,-0.89958 -0.370417,0 -0.714375,0.10583 -1.005417,0.29104" style="fill:none;stroke:#641ae6;stroke-width:0.529167;stroke-linecap:round;stroke-miterlimit:10;stroke-opacity:1"></path>
    <path id="XMLID_67_" class="st3" d="m 87.550625,127.6615 c 0.47625,0 0.846667,0.37041 0.846667,0.84666" style="fill:none;stroke:#641ae6;stroke-width:0.529167;stroke-linecap:round;stroke-miterlimit:10;stroke-opacity:1"></path>
    <path id="XMLID_66_" class="st3" d="m 95.276459,129.03733 h -0.05292 c -0.211667,-0.74083 -0.873125,-1.27 -1.693333,-1.27 -0.343959,0 -0.661459,0.10583 -0.9525,0.29104 -0.185209,-1.13771 -1.164167,-2.03729 -2.354792,-2.03729 -1.084792,0 -1.984375,0.71438 -2.301875,1.69333 -0.132292,-0.0264 -0.291042,-0.0529 -0.423333,-0.0529 -0.820209,0 -1.508125,0.60854 -1.613959,1.37583 h -0.264583 c -0.687917,0 -1.217083,0.55563 -1.217083,1.21708 v 0.0794 c 0,0.68792 0.555625,1.21708 1.217083,1.21708 h 9.657292 c 0.687916,0 1.217083,-0.55562 1.217083,-1.21708 v -0.0794 c 0.02646,-0.66145 -0.529167,-1.21708 -1.217083,-1.21708 z" style="fill:none;stroke:#641ae6;stroke-width:0.529167;stroke-linejoin:round;stroke-miterlimit:10;stroke-opacity:1"></path>
  </g>
</svg>